#!OML:ASF G:\JayActor3\Patient Classification 1\Patient 1\Session 5\male.ASF
:FULLY-SPECIFIED
:DEGREES
1267
root 66.1194 13.5266 -5.09472 -47.0102 -89.1856 56.2951
lowerback 28.9477 -0.556259 0.826016
upperback 7.61317 -1.22488 -0.709654
thorax -7.43387 -0.869526 -0.811019
lowerneck -2.17912 0.00211256 0.649634
upperneck -13.8636 -0.146919 1.67127
head -4.14801 -0.335483 0.459566
rclavicle 1.78906e-015 -7.7526e-015
rhumerus -21.6099 8.2142 -87.4275
rradius 49.5728
rwrist -5.68858
rhand -20.9524 -9.03789
rfingers 7.12502
rthumb 5.42028 -38.9486
lclavicle 1.78906e-015 -7.7526e-015
lhumerus -21.0185 -8.18466 84.44
lradius 43.215
lwrist 26.0964
lhand -19.5309 13.3941
lfingers 7.12502
lthumb 6.79265 43.2651
rfemur -64.2141 3.2477 26.6465
rtibia 70.6327
rfoot -22.6287 -17.8784
rtoes -16.8468
lfemur -35.5941 5.90446 -25.3449
ltibia 82.1085
lfoot -23.903 3.92457
ltoes -16.3148
1268
root 66.1945 13.5219 -5.08755 -63.0392 -89.2058 72.143
lowerback 28.7406 -0.528575 0.668107
upperback 7.63204 -1.24019 -0.764267
thorax -7.31227 -0.875274 -0.778365
lowerneck -2.1353 0.0292129 0.654912
upperneck -13.7171 -0.109976 1.62194
head -4.10347 -0.31086 0.439995
rclavicle 1.86858e-014 1.5704e-014
rhumerus -21.5886 8.24494 -87.5503
rradius 49.4899
rwrist -5.64383
rhand -20.9363 -9.04284
rfingers 7.12502
rthumb 5.43587 -38.9531
lclavicle 1.86858e-014 1.5704e-014
lhumerus -21.0366 -8.0657 84.4173
lradius 43.0326
lwrist 26.0061
lhand -19.574 13.4459
lfingers 7.12502
lthumb 6.75109 43.3182
rfemur -64.2203 3.33271 26.5421
rtibia 70.4451
rfoot -22.464 -17.9808
rtoes -17.1534
lfemur -35.2371 6.10147 -25.6118
ltibia 81.5969
lfoot -25.024 3.52971
ltoes -14.3878
1269
root 66.2688 13.5194 -5.08166 -77.7462 -89.1734 86.6654
lowerback 28.5447 -0.504315 0.51016
upperback 7.65003 -1.25851 -0.813392
thorax -7.1968 -0.882693 -0.738432
lowerneck -2.10541 0.0492655 0.656836
upperneck -13.5781 -0.0808239 1.59774
head -4.05904 -0.291463 0.429707
rclavicle 1.39149e-014 3.57812e-015
rhumerus -21.5776 8.25409 -87.6762
rradius 49.4143
rwrist -5.5922
rhand -20.8973 -9.02819
rfingers 7.12502
rthumb 5.47349 -38.9375
lclavicle 1.39149e-014 3.57812e-015
lhumerus -21.0561 -7.94664 84.3951
lradius 42.8399
lwrist 25.9201
lhand -19.6125 13.4867
lfingers 7.12502
lthumb 6.71386 43.3603
rfemur -64.1962 3.40576 26.4557
rtibia 70.2249
rfoot -22.2701 -18.098
rtoes -17.3046
lfemur -35.0028 6.31449 -25.833
ltibia 81.2041
lfoot -25.8841 3.11029
ltoes -12.522
1270
root 66.342 13.519 -5.07723 -90.6406 -89.1094 99.3696
lowerback 28.3552 -0.474568 0.352173
upperback 7.66929 -1.26851 -0.854077
thorax -7.08243 -0.886481 -0.691862
lowerneck -2.08582 0.0702619 0.658258
upperneck -13.4518 -0.0494596 1.58971
head -4.01739 -0.272119 0.424948
rclavicle 4.07509e-015 -8.94531e-015
rhumerus -21.5915 8.23678 -87.7987
rradius 49.3655
rwrist -5.53988
rhand -20.8382 -8.99974
rfingers 7.12502
rthumb 5.53054 -38.9076
lclavicle 4.07509e-015 -8.94531e-015
lhumerus -21.0702 -7.84444 84.379
lradius 42.6359
lwrist 25.8445
lhand -19.6376 13.5258
lfingers 7.12502
lthumb 6.68962 43.4001
rfemur -64.1357 3.47836 26.3914
rtibia 69.9664
rfoot -22.0441 -18.1937
rtoes -17.1855
lfemur -34.8689 6.55366 -25.9956
ltibia 80.9084
lfoot -26.5372 2.65728
ltoes -10.8092
1271
root 66.4141 13.5209 -5.07397 -101.465 -89.0257 110.004
lowerback 28.1649 -0.442708 0.209158
upperback 7.68726 -1.27049 -0.891801
thorax -6.96905 -0.886672 -0.653329
lowerneck -2.0713 0.0899517 0.667853
upperneck -13.3305 -0.0183105 1.59882
head -3.97673 -0.25422 0.424523
rclavicle -1.07344e-014 -1.70955e-014
rhumerus -21.644 8.18626 -87.923
rradius 49.3523
rwrist -5.49788
rhand -20.7714 -8.94928
rfingers 7.12502
rthumb 5.5951 -38.8554
lclavicle -1.07344e-014 -1.70955e-014
lhumerus -21.0703 -7.76309 84.366
lradius 42.4098
lwrist 25.7764
lhand -19.6373 13.5381
lfingers 7.12502
lthumb 6.68998 43.4124
rfemur -64.0475 3.54356 26.3489
rtibia 69.6655
rfoot -21.7252 -18.2487
rtoes -16.7848
lfemur -34.8104 6.81356 -26.0999
ltibia 80.679
lfoot -27.0178 2.18541
ltoes -9.27818
1272
root 66.4847 13.5254 -5.07145 -110.698 -88.9233 119.048
lowerback 27.9731 -0.409851 0.0788148
upperback 7.69838 -1.26623 -0.927904
thorax -6.86251 -0.883849 -0.622305
lowerneck -2.05857 0.113317 0.680965
upperneck -13.2044 0.0181922 1.6105
head -3.93409 -0.233795 0.42417
rclavicle 2.00773e-014 4.6118e-014
rhumerus -21.743 8.1172 -88.0479
rradius 49.3681
rwrist -5.48404
rhand -20.7101 -8.86449
rfingers 7.12502
rthumb 5.65429 -38.7691
lclavicle 2.00773e-014 4.6118e-014
lhumerus -21.0668 -7.69104 84.3595
lradius 42.1635
lwrist 25.7117
lhand -19.6187 13.557
lfingers 7.12502
lthumb 6.7079 43.4307
rfemur -63.9326 3.5983 26.3206
rtibia 69.3168
rfoot -21.2764 -18.2414
rtoes -16.0306
lfemur -34.7807 7.09375 -26.1585
ltibia 80.4698
lfoot -27.3831 1.69346
ltoes -7.93903
